<svg xmlns="http://www.w3.org/2000/svg" aria-hidden="true" style="position:absolute;width:0;height:0;overflow:hidden">
    <defs>
        <symbol id="icon-blue" viewBox="0 0 33 32">
            <path fill="#4d8dff" style="fill: var(--color1, #4d8dff)" d="M12.667 1.333h6.726c6.259 0 11.333 5.074 11.333 11.333v6.667c0 6.259-5.074 11.333-11.333 11.333h-6.726c-6.259 0-11.333-5.074-11.333-11.333v-6.667c0-6.259 5.074-11.333 11.333-11.333z"></path>
            <path fill="none" stroke="#fff" style="stroke: var(--color2, #fff)" stroke-linejoin="miter" stroke-linecap="butt" stroke-miterlimit="4" stroke-width="2.6667" d="M12.667 1.333h6.726c6.259 0 11.333 5.074 11.333 11.333v6.667c0 6.259-5.074 11.333-11.333 11.333h-6.726c-6.259 0-11.333-5.074-11.333-11.333v-6.667c0-6.259 5.074-11.333 11.333-11.333z"></path>
            <path fill="none" stroke="#4d8dff" style="stroke: var(--color1, #4d8dff)" stroke-linejoin="miter" stroke-linecap="butt" stroke-miterlimit="4" stroke-width="2.6667" d="M12.667 1.333h6.726c6.259 0 11.333 5.074 11.333 11.333v6.667c0 6.259-5.074 11.333-11.333 11.333h-6.726c-6.259 0-11.333-5.074-11.333-11.333v-6.667c0-6.259 5.074-11.333 11.333-11.333z"></path>
            <path fill="#fff" style="fill: var(--color2, #fff)" d="M23.601 11.19c-0.286-0.292-0.75-0.292-1.036 0l-8.779 8.949-3.375-3.44c-0.286-0.292-0.75-0.292-1.036 0s-0.286 0.765 0 1.056l3.893 3.968c0.286 0.292 0.75 0.291 1.036 0l9.297-9.478c0.286-0.292 0.286-0.765 0-1.056z"></path>
        </symbol>
        <symbol id="icon-orange" viewBox="0 0 33 32">
            <path fill="#f90" style="fill: var(--color1, #f90)" d="M12.667 1.333h6.726c6.259 0 11.333 5.074 11.333 11.333v6.667c0 6.259-5.074 11.333-11.333 11.333h-6.726c-6.259 0-11.333-5.074-11.333-11.333v-6.667c0-6.259 5.074-11.333 11.333-11.333z"></path>
            <path fill="none" stroke="#fff" style="stroke: var(--color2, #fff)" stroke-linejoin="miter" stroke-linecap="butt" stroke-miterlimit="4" stroke-width="2.6667" d="M12.667 1.333h6.726c6.259 0 11.333 5.074 11.333 11.333v6.667c0 6.259-5.074 11.333-11.333 11.333h-6.726c-6.259 0-11.333-5.074-11.333-11.333v-6.667c0-6.259 5.074-11.333 11.333-11.333z"></path>
            <path fill="none" stroke="#f90" style="stroke: var(--color1, #f90)" stroke-linejoin="miter" stroke-linecap="butt" stroke-miterlimit="4" stroke-width="2.6667" d="M12.667 1.333h6.726c6.259 0 11.333 5.074 11.333 11.333v6.667c0 6.259-5.074 11.333-11.333 11.333h-6.726c-6.259 0-11.333-5.074-11.333-11.333v-6.667c0-6.259 5.074-11.333 11.333-11.333z"></path>
            <path fill="#fff" style="fill: var(--color2, #fff)" d="M23.601 11.19c-0.286-0.292-0.75-0.292-1.036 0l-8.779 8.949-3.375-3.44c-0.286-0.292-0.75-0.292-1.036 0s-0.286 0.765 0 1.056l3.893 3.968c0.286 0.292 0.75 0.291 1.036 0l9.297-9.478c0.286-0.292 0.286-0.765 0-1.056z"></path>
        </symbol>
        <symbol id="icon-red" viewBox="0 0 33 32">
            <path fill="#f03e3d" style="fill: var(--color1, #f03e3d)" d="M12.667 1.333h6.726c6.259 0 11.333 5.074 11.333 11.333v6.667c0 6.259-5.074 11.333-11.333 11.333h-6.726c-6.259 0-11.333-5.074-11.333-11.333v-6.667c0-6.259 5.074-11.333 11.333-11.333z"></path>
            <path fill="none" stroke="#fff" style="stroke: var(--color2, #fff)" stroke-linejoin="miter" stroke-linecap="butt" stroke-miterlimit="4" stroke-width="2.6667" d="M12.667 1.333h6.726c6.259 0 11.333 5.074 11.333 11.333v6.667c0 6.259-5.074 11.333-11.333 11.333h-6.726c-6.259 0-11.333-5.074-11.333-11.333v-6.667c0-6.259 5.074-11.333 11.333-11.333z"></path>
            <path fill="none" stroke="#f03e3d" style="stroke: var(--color1, #f03e3d)" stroke-linejoin="miter" stroke-linecap="butt" stroke-miterlimit="4" stroke-width="2.6667" d="M12.667 1.333h6.726c6.259 0 11.333 5.074 11.333 11.333v6.667c0 6.259-5.074 11.333-11.333 11.333h-6.726c-6.259 0-11.333-5.074-11.333-11.333v-6.667c0-6.259 5.074-11.333 11.333-11.333z"></path>
            <path fill="#fff" style="fill: var(--color2, #fff)" d="M23.601 11.19c-0.286-0.292-0.75-0.292-1.036 0l-8.779 8.949-3.375-3.44c-0.286-0.292-0.75-0.292-1.036 0s-0.286 0.765 0 1.056l3.893 3.968c0.286 0.292 0.75 0.291 1.036 0l9.297-9.478c0.286-0.292 0.286-0.765 0-1.056z"></path>
        </symbol>
        <symbol id="icon-stars" viewBox="0 0 188 32">
            <path fill="#f3cd03" d="M32.404 11.486a1.612 1.612 0 0 0-.537-.744l-.004-.003a1.628 1.628 0 0 0-.863-.334h-.006l-9.262-.724L17.725.945a1.615 1.615 0 0 0-.591-.684l-.006-.004a1.64 1.64 0 0 0-2.358.676l-.004.01-4.007 8.738-9.262.724a1.627 1.627 0 0 0-.859.327l.004-.003a1.577 1.577 0 0 0-.15 2.417l.001.001 6.844 6.569-2.421 10.322a1.572 1.572 0 0 0 .654 1.672l.006.004c.259.178.579.284.924.284.336 0 .648-.101.908-.274l-.006.004 8.846-5.808 8.844 5.808c.254.167.565.267.899.267.36 0 .693-.115.964-.311l-.005.003a1.577 1.577 0 0 0 .604-1.741l.003.011-2.969-10.236 7.367-6.53a1.585 1.585 0 0 0 .449-1.716l.003.011zm38.99 0a1.612 1.612 0 0 0-.537-.744l-.004-.003a1.623 1.623 0 0 0-.865-.334h-.006l-9.26-.724L56.715.945a1.613 1.613 0 0 0-.593-.684l-.006-.004a1.639 1.639 0 0 0-2.357.676l-.004.01-4.007 8.738-9.262.724a1.634 1.634 0 0 0-.861.327l.004-.003a1.575 1.575 0 0 0-.15 2.417l.001.001 6.844 6.569-2.42 10.322a1.565 1.565 0 0 0 .071.947l-.004-.011c.122.306.326.558.585.736l.005.004a1.636 1.636 0 0 0 1.833.011l-.006.004 8.844-5.808 8.846 5.808c.254.167.565.267.899.267.36 0 .693-.115.964-.311l-.005.003a1.577 1.577 0 0 0 .604-1.741l.003.011-2.971-10.236 7.369-6.53a1.584 1.584 0 0 0 .448-1.716l.003.011zm38.983 0a1.612 1.612 0 0 0-.537-.744l-.004-.003a1.623 1.623 0 0 0-.865-.334h-.006l-9.26-.724L95.698.945a1.613 1.613 0 0 0-.593-.684l-.006-.004a1.639 1.639 0 0 0-2.357.676l-.004.01-4.009 8.738-9.26.724a1.634 1.634 0 0 0-.861.327l.004-.003a1.6 1.6 0 0 0-.596 1.641l-.002-.011c.069.299.226.572.448.788l6.844 6.569-2.42 10.322a1.578 1.578 0 0 0 .652 1.673l.006.004a1.636 1.636 0 0 0 1.833.011l-.006.004 8.844-5.808 8.846 5.808c.254.167.565.267.899.267.36 0 .693-.115.964-.311l-.005.003a1.577 1.577 0 0 0 .604-1.741l.003.011-2.971-10.236 7.369-6.53a1.584 1.584 0 0 0 .448-1.716l.003.011zm38.992 0a1.612 1.612 0 0 0-.537-.744l-.004-.003a1.623 1.623 0 0 0-.865-.334h-.006l-9.26-.724L134.69.945a1.615 1.615 0 0 0-.591-.684l-.006-.004a1.64 1.64 0 0 0-2.358.676l-.004.01-4.007 8.738-9.262.724a1.634 1.634 0 0 0-.861.327l.004-.003a1.575 1.575 0 0 0-.15 2.417l.001.001 6.844 6.569-2.42 10.322a1.575 1.575 0 0 0 .652 1.673l.006.004a1.636 1.636 0 0 0 1.833.011l-.006.004 8.846-5.808 8.844 5.808c.254.167.565.267.899.267.36 0 .693-.115.964-.311l-.005.003a1.577 1.577 0 0 0 .603-1.741l.003.011-2.969-10.236 7.367-6.53a1.584 1.584 0 0 0 .448-1.716l.003.011zm13.922 8.23-2.42 10.322a1.57 1.57 0 0 0 .651 1.676l.006.004a1.633 1.633 0 0 0 1.834.007l-.006.004 8.844-5.808 8.846 5.808a1.638 1.638 0 0 0 2.432-.8l.004-.011a1.573 1.573 0 0 0 .026-.971l.003.011-2.971-10.236 7.369-6.53a1.596 1.596 0 0 0 .448-1.715l.003.011a1.612 1.612 0 0 0-1.405-1.081h-.005l-9.262-.725-4.007-8.736a1.613 1.613 0 0 0-.593-.684l-.006-.004a1.641 1.641 0 0 0-2.356.678l-.004.01-4.009 8.736-9.26.724a1.634 1.634 0 0 0-.861.327l.004-.003a1.6 1.6 0 0 0-.597 1.641l-.002-.011c.071.299.228.572.45.788l6.846 6.569zm4.634-6.92c.304-.024.58-.129.812-.291l-.005.003c.235-.164.42-.384.54-.641l.004-.01 2.923-6.368 2.923 6.368c.124.267.31.486.541.647l.005.003c.238.165.516.265.805.288l6.453.503-5.314 4.709a1.582 1.582 0 0 0-.474 1.64l-.003-.011 2.036 7.015-6.069-3.986c-.253-.169-.565-.27-.9-.27s-.647.101-.906.274l.006-.004-6.341 4.164 1.705-7.271a1.574 1.574 0 0 0-.447-1.504l-.001-.001-4.937-4.738 6.644-.521z" style="fill:var(--color5, #f3cd03)"/>
        </symbol>
        <symbol id="icon-logo" viewBox="0 0 36 32">
            <path fill="#02bc6b" style="fill: var(--color1, #02bc6b)" d="M2.785 30.324c-1.532 0-2.785-1.241-2.785-2.757v-9.639h7.010v-0.011h4.213c1.086-0.027 2.005-0.964 2.005-2.068 0-1.131-0.947-2.068-2.089-2.068l-11.14 0.002v-2.759c0-1.516 1.253-2.757 2.785-2.757h8.356c2.116 0 3.926 0.745 5.402 2.233 1.504 1.461 2.256 3.253 2.256 5.349 0 2.068-0.724 3.86-2.2 5.321s-3.259 2.234-5.347 2.261h-5.682v4.135c0 1.516-1.253 2.757-2.785 2.757z"></path>
            <path fill="#02897a" style="fill: var(--color2, #02897a)" d="M22.309 5.067c3.076 2.959 4.627 6.644 4.627 10.833 0 4.118-1.485 7.799-4.516 10.767l-4.3-4.006c1.884-1.845 2.809-4.068 2.809-6.761 0-2.715-0.953-4.933-2.882-6.788l4.261-4.044z"></path>
            <path fill="#035b81" style="fill: var(--color3, #035b81)" d="M28.893 0c4.432 4.38 6.662 9.812 6.662 16.045 0 6.137-2.14 11.564-6.5 15.955l-4.151-4.015c3.248-3.27 4.838-7.236 4.838-11.94 0-4.75-1.644-8.713-4.962-11.991l4.112-4.054z"></path>
            <path fill="#028e37" style="fill: var(--color4, #028e37)" d="M0 23.454h5.57v4.113c0 1.516-1.253 2.756-2.785 2.756s-2.785-1.239-2.785-2.756v-4.113z"></path>
        </symbol>
        <symbol id="icon-facebook" viewBox="0 0 32 32">
            <path fill="none" stroke="#02897a" style="stroke: var(--color1, #02897a)" stroke-linejoin="round" stroke-linecap="round" stroke-miterlimit="4" stroke-width="2.6667" d="M24 2.667h-4c-3.682 0-6.667 2.985-6.667 6.667v0 4h-4v5.333h4v10.667h5.333v-10.667h4l1.333-5.333h-5.333v-4c0-0.736 0.597-1.333 1.333-1.333v0h4v-5.333z"></path>
        </symbol>
        <symbol id="icon-instagram" viewBox="0 0 32 32">
            <path fill="none" stroke="#02897a" style="stroke: var(--color1, #02897a)" stroke-linejoin="round" stroke-linecap="round" stroke-miterlimit="4" stroke-width="2.6667" d="M22.667 2.667h-13.333c-3.682 0-6.667 2.985-6.667 6.667v0 13.333c0 3.682 2.985 6.667 6.667 6.667v0h13.333c3.682 0 6.667-2.985 6.667-6.667v0-13.333c0-3.682-2.985-6.667-6.667-6.667v0z"></path>
            <path fill="none" stroke="#02897a" style="stroke: var(--color1, #02897a)" stroke-linejoin="round" stroke-linecap="round" stroke-miterlimit="4" stroke-width="2.6667" d="M21.333 15.16c0.043 0.253 0.067 0.545 0.067 0.843 0 2.946-2.388 5.333-5.333 5.333-2.691 0-4.917-1.993-5.281-4.584l-0.003-0.028c-0.031-0.217-0.049-0.467-0.049-0.721 0-2.946 2.388-5.333 5.333-5.333 2.648 0 4.845 1.93 5.262 4.46l0.004 0.031zM23.333 8.667h0.013"></path>
        </symbol>
        <symbol id="icon-twitter" viewBox="0 0 32 32">
            <path fill="none" stroke="#02897a" style="stroke: var(--color1, #02897a)" stroke-linejoin="round" stroke-linecap="round" stroke-miterlimit="4" stroke-width="2.6667" d="M30.667 4.013c-1.2 0.856-2.591 1.552-4.084 2.013l-0.103 0.027c-1.101-1.261-2.712-2.053-4.507-2.053-3.299 0-5.973 2.674-5.973 5.973 0 0.028 0 0.056 0.001 0.084l-0-0.004v1.333c-0.11 0.003-0.239 0.005-0.368 0.005-4.79 0-9.027-2.37-11.602-6.001l-0.030-0.044s-5.333 12 6.667 17.333c-2.442 1.677-5.462 2.679-8.716 2.679-0.217 0-0.433-0.004-0.648-0.013l0.031 0.001c12 6.667 26.667 0 26.667-15.333 0-0.371-0.037-0.741-0.107-1.107 1.323-1.305 2.293-2.963 2.758-4.822l0.015-0.071z"></path>
        </symbol>
        <symbol id="icon-mobile" viewBox="0 0 21 32">
            <path fill="#02897a" style="fill: var(--color1, #02897a)" d="M16.935 2.286h-13.298c-1.377 0-2.494 1.152-2.494 2.571v22.286c0 1.419 1.117 2.571 2.494 2.571h13.298c1.377 0 2.494-1.152 2.494-2.571v-22.286c0-1.419-1.117-2.571-2.494-2.571zM12.779 26.238c0 0.52-0.375 0.905-0.832 0.905h-3.371c-0.41 0-0.784-0.385-0.784-0.857s0.374-0.857 0.831-0.857h3.326c0.457 0 0.831 0.385 0.831 0.809zM16.103 22.857h-11.635v-17.143h11.637v17.143z"></path>
        </symbol>
    </defs>
</svg>